<?xml version="1.0" encoding="utf-8"?>
<!-- Generator: Adobe Illustrator 21.0.0, SVG Export Plug-In . SVG Version: 6.00 Build 0)  -->
<svg version="1.1" id="Layer_1" xmlns="http://www.w3.org/2000/svg" xmlns:xlink="http://www.w3.org/1999/xlink" x="0px" y="0px"
	 viewBox="0 0 24 24" style="enable-background:new 0 0 24 24;" xml:space="preserve">
<style type="text/css">
	.st0{fill:#002456;}
	.st1{fill:none;}
</style>
<g id="XMLID_3_">
	<g id="XMLID_27_">
		<path id="XMLID_38_" class="st0" d="M3.1,6.7c-0.2,0-0.4-0.1-0.5-0.2S2.4,6.2,2.4,6V4.3c0-0.2,0.1-0.4,0.2-0.5s0.3-0.2,0.5-0.2
			h17.9c0.2,0,0.4,0.1,0.5,0.2s0.2,0.3,0.2,0.5V6c0,0.2-0.1,0.4-0.2,0.5s-0.3,0.2-0.5,0.2H3.1z M3.1,13.5c-0.2,0-0.4-0.1-0.5-0.2
			s-0.2-0.3-0.2-0.5v-1.7c0-0.2,0.1-0.4,0.2-0.5s0.3-0.2,0.5-0.2h17.9c0.2,0,0.4,0.1,0.5,0.2s0.2,0.3,0.2,0.5v1.7
			c0,0.2-0.1,0.4-0.2,0.5s-0.3,0.2-0.5,0.2H3.1z M3.1,20.4c-0.2,0-0.4-0.1-0.5-0.2s-0.2-0.3-0.2-0.5V18c0-0.2,0.1-0.4,0.2-0.5
			s0.3-0.2,0.5-0.2h17.9c0.2,0,0.4,0.1,0.5,0.2s0.2,0.3,0.2,0.5v1.7c0,0.2-0.1,0.4-0.2,0.5s-0.3,0.2-0.5,0.2H3.1z"/>
	</g>
	<rect id="XMLID_6_" x="0" class="st1" width="24" height="24"/>
</g>
</svg>
