<?xml version="1.0" encoding="utf-8"?>
<!-- Generator: Adobe Illustrator 21.0.0, SVG Export Plug-In . SVG Version: 6.00 Build 0)  -->
<svg version="1.1" id="Layer_1" xmlns="http://www.w3.org/2000/svg" xmlns:xlink="http://www.w3.org/1999/xlink" x="0px" y="0px"
	 viewBox="0 0 40 40" style="enable-background:new 0 0 40 40;" xml:space="preserve">
<style type="text/css">
	.st0{fill:none;stroke:#002456;stroke-width:1.5;stroke-linecap:round;stroke-linejoin:round;stroke-miterlimit:10;}
</style>
<g id="XMLID_234_">
	<g id="XMLID_285_">
		<path id="XMLID_139_" class="st0" d="M104.3,35.7l-6.2-6.2c-1-1-1-2.5,0-3.5l0,0c1-1,2.5-1,3.5,0l6.2,6.2c1,1,1,2.5,0,3.5l0,0
			C106.8,36.7,105.3,36.7,104.3,35.7z"/>
		<path id="XMLID_131_" class="st0" d="M98.1,26c0.3-0.3,0.7-0.5,1.1-0.6l-2-2c-0.5,0.6-1.1,1.2-1.7,1.7l2,2
			C97.6,26.7,97.8,26.3,98.1,26z"/>
		<circle id="XMLID_128_" class="st0" cx="87.7" cy="15.7" r="12.2"/>
		<circle id="XMLID_124_" class="st0" cx="87.7" cy="15.7" r="9.8"/>
		<path id="XMLID_47_" class="st0" d="M80.4,15.7c0-4.1,3.3-7.3,7.3-7.3"/>
	</g>
	<g id="XMLID_113_">
		<path id="XMLID_189_" class="st0" d="M248,31.2c-1.6-1.4-4.1-2.5-7.2-3c-0.5-0.1-0.8-0.5-0.8-0.9c0-0.5,0-1,0-1.6
			c0-1.3,1.5-2.8,1.6-4.6c0.5-1.1,0.8-2.1,0.8-2.9c0-0.5-0.1-0.9-0.4-1.1c0.1-0.7,0.2-1.4,0.4-2.1c0.5-2.9-0.5-5-3.1-6
			c-0.9-0.3-4.8-1-6.2-2.4c-0.5-0.5-0.2,2.3-0.6,2.5c-2.5,1.1-3.5,2.9-3,5.8c0.1,0.7,0.2,1.4,0.4,2.1c-0.2,0.2-0.4,0.6-0.4,1.1
			c0,0.8,0.3,1.9,0.8,2.9c0.1,1.8,1.6,3.2,1.6,4.6c0,0.6,0,1.1,0,1.6c0,0.5-0.3,0.9-0.8,0.9c-3.1,0.6-5.7,1.6-7.2,3"/>
		<circle id="XMLID_148_" class="st0" cx="236" cy="19.9" r="16.5"/>
	</g>
	<g id="XMLID_278_">
		<polyline id="XMLID_211_" class="st0" points="5,20.5 20,5.5 35,20.5 		"/>
		<polyline id="XMLID_200_" class="st0" points="25.4,10.9 25.4,7.9 29,7.9 29,14.5 		"/>
		<polyline id="XMLID_190_" class="st0" points="8.6,16.9 8.6,34.3 17,34.3 17,25.9 23,25.9 23,34.3 31.4,34.3 31.4,16.9 		"/>
	</g>
	<g id="XMLID_265_">
		<path id="XMLID_240_" class="st0" d="M163.8,7.4l-15.7,15.7c-0.9,0.9-0.9,2.4,0,3.3l9.4,9.4c0.9,0.9,2.4,0.9,3.3,0l15.7-15.7V7.4
			H163.8z"/>
		<circle id="XMLID_239_" class="st0" cx="170.7" cy="13.2" r="2.3"/>
		<line id="XMLID_238_" class="st0" x1="156.3" y1="19.5" x2="151.2" y2="24.7"/>
		<path id="XMLID_237_" class="st0" d="M176.5,13.2c2,0,3.2-2,3.9-4.7c1-4-4-6.9-6.8-3.8c-1.8,2-2.8,4.9-2.8,8.6"/>
		<line id="XMLID_236_" class="st0" x1="164.4" y1="27.6" x2="159.2" y2="32.8"/>
		<line id="XMLID_233_" class="st0" x1="158.6" y1="21.8" x2="155.8" y2="24.7"/>
		<line id="XMLID_231_" class="st0" x1="154" y1="26.5" x2="153.5" y2="27"/>
		<line id="XMLID_227_" class="st0" x1="161.5" y1="24.7" x2="158.6" y2="27.6"/>
		<line id="XMLID_217_" class="st0" x1="156.9" y1="29.3" x2="156.3" y2="29.9"/>
	</g>
	<g id="XMLID_256_">
		<circle id="XMLID_244_" class="st0" cx="308" cy="19.9" r="15.3"/>
		<circle id="XMLID_243_" class="st0" cx="308" cy="19.9" r="7.9"/>
		<path id="XMLID_230_" class="st0" d="M304.7,5l0.9,7.3c0.8-0.2,1.6-0.4,2.4-0.4s1.6,0.1,2.4,0.4l0.9-7.3c-1.1-0.2-2.2-0.4-3.3-0.4
			C306.9,4.6,305.8,4.8,304.7,5z"/>
		<path id="XMLID_229_" class="st0" d="M311.3,34.8l-0.9-7.3c-0.8,0.2-1.6,0.4-2.4,0.4s-1.6-0.1-2.4-0.4l-0.9,7.3
			c1.1,0.2,2.2,0.4,3.3,0.4C309.1,35.2,310.2,35.1,311.3,34.8z"/>
		<path id="XMLID_215_" class="st0" d="M315.9,19.9c0,0.8-0.1,1.6-0.4,2.4l7.3,0.9c0.2-1.1,0.4-2.2,0.4-3.3s-0.1-2.2-0.4-3.3
			l-7.3,0.9C315.8,18.3,315.9,19.1,315.9,19.9z"/>
		<path id="XMLID_213_" class="st0" d="M300.1,19.9c0-0.8,0.1-1.6,0.4-2.4l-7.3-0.9c-0.2,1.1-0.4,2.2-0.4,3.3s0.1,2.2,0.4,3.3
			l7.3-0.9C300.2,21.6,300.1,20.8,300.1,19.9z"/>
	</g>
</g>
</svg>
