<?xml version="1.0" encoding="utf-8"?>
<!-- Generator: Adobe Illustrator 21.0.0, SVG Export Plug-In . SVG Version: 6.00 Build 0)  -->
<svg version="1.1" id="Layer_1" xmlns="http://www.w3.org/2000/svg" xmlns:xlink="http://www.w3.org/1999/xlink" x="0px" y="0px"
	 viewBox="0 0 40 40" style="enable-background:new 0 0 40 40;" xml:space="preserve">
<style type="text/css">
	.st0{fill:none;stroke:#002456;stroke-width:1.5;stroke-linecap:round;stroke-linejoin:round;stroke-miterlimit:10;}
</style>
<g id="XMLID_234_">
	<g id="XMLID_285_">
		<path id="XMLID_139_" class="st0" d="M-111.7,35.7l-6.2-6.2c-1-1-1-2.5,0-3.5l0,0c1-1,2.5-1,3.5,0l6.2,6.2c1,1,1,2.5,0,3.5l0,0
			C-109.2,36.7-110.7,36.7-111.7,35.7z"/>
		<path id="XMLID_131_" class="st0" d="M-117.9,26c0.3-0.3,0.7-0.5,1.1-0.6l-2-2c-0.5,0.6-1.1,1.2-1.7,1.7l2,2
			C-118.4,26.7-118.2,26.3-117.9,26z"/>
		<circle id="XMLID_128_" class="st0" cx="-128.3" cy="15.7" r="12.2"/>
		<circle id="XMLID_124_" class="st0" cx="-128.3" cy="15.7" r="9.8"/>
		<path id="XMLID_47_" class="st0" d="M-135.6,15.7c0-4.1,3.3-7.3,7.3-7.3"/>
	</g>
	<g id="XMLID_113_">
		<path id="XMLID_189_" class="st0" d="M32,31.2c-1.6-1.4-4.1-2.5-7.2-3c-0.5-0.1-0.8-0.5-0.8-0.9c0-0.5,0-1,0-1.6
			c0-1.3,1.5-2.8,1.6-4.6c0.5-1.1,0.8-2.1,0.8-2.9c0-0.5-0.1-0.9-0.4-1.1c0.1-0.7,0.2-1.4,0.4-2.1c0.5-2.9-0.5-5-3.1-6
			c-0.9-0.3-4.8-1-6.2-2.4c-0.5-0.5-0.2,2.3-0.6,2.5c-2.5,1.1-3.5,2.9-3,5.8c0.1,0.7,0.2,1.4,0.4,2.1c-0.2,0.2-0.4,0.6-0.4,1.1
			c0,0.8,0.3,1.9,0.8,2.9c0.1,1.8,1.6,3.2,1.6,4.6c0,0.6,0,1.1,0,1.6c0,0.5-0.3,0.9-0.8,0.9c-3.1,0.6-5.7,1.6-7.2,3"/>
		<circle id="XMLID_148_" class="st0" cx="20" cy="19.9" r="16.5"/>
	</g>
	<g id="XMLID_278_">
		<polyline id="XMLID_211_" class="st0" points="-211,20.5 -196,5.5 -181,20.5 		"/>
		<polyline id="XMLID_200_" class="st0" points="-190.6,10.9 -190.6,7.9 -187,7.9 -187,14.5 		"/>
		<polyline id="XMLID_190_" class="st0" points="-207.4,16.9 -207.4,34.3 -199,34.3 -199,25.9 -193,25.9 -193,34.3 -184.6,34.3 
			-184.6,16.9 		"/>
	</g>
	<g id="XMLID_265_">
		<path id="XMLID_240_" class="st0" d="M-52.2,7.4l-15.7,15.7c-0.9,0.9-0.9,2.4,0,3.3l9.4,9.4c0.9,0.9,2.4,0.9,3.3,0l15.7-15.7V7.4
			H-52.2z"/>
		<circle id="XMLID_239_" class="st0" cx="-45.3" cy="13.2" r="2.3"/>
		<line id="XMLID_238_" class="st0" x1="-59.7" y1="19.5" x2="-64.8" y2="24.7"/>
		<path id="XMLID_237_" class="st0" d="M-39.5,13.2c2,0,3.2-2,3.9-4.7c1-4-4-6.9-6.8-3.8c-1.8,2-2.8,4.9-2.8,8.6"/>
		<line id="XMLID_236_" class="st0" x1="-51.6" y1="27.6" x2="-56.8" y2="32.8"/>
		<line id="XMLID_233_" class="st0" x1="-57.4" y1="21.8" x2="-60.2" y2="24.7"/>
		<line id="XMLID_231_" class="st0" x1="-62" y1="26.5" x2="-62.5" y2="27"/>
		<line id="XMLID_227_" class="st0" x1="-54.5" y1="24.7" x2="-57.4" y2="27.6"/>
		<line id="XMLID_217_" class="st0" x1="-59.1" y1="29.3" x2="-59.7" y2="29.9"/>
	</g>
	<g id="XMLID_256_">
		<circle id="XMLID_244_" class="st0" cx="92" cy="19.9" r="15.3"/>
		<circle id="XMLID_243_" class="st0" cx="92" cy="19.9" r="7.9"/>
		<path id="XMLID_230_" class="st0" d="M88.7,5l0.9,7.3c0.8-0.2,1.6-0.4,2.4-0.4c0.8,0,1.6,0.1,2.4,0.4L95.3,5
			c-1.1-0.2-2.2-0.4-3.3-0.4C90.9,4.6,89.8,4.8,88.7,5z"/>
		<path id="XMLID_229_" class="st0" d="M95.3,34.8l-0.9-7.3c-0.8,0.2-1.6,0.4-2.4,0.4c-0.8,0-1.6-0.1-2.4-0.4l-0.9,7.3
			c1.1,0.2,2.2,0.4,3.3,0.4C93.1,35.2,94.2,35.1,95.3,34.8z"/>
		<path id="XMLID_215_" class="st0" d="M99.9,19.9c0,0.8-0.1,1.6-0.4,2.4l7.3,0.9c0.2-1.1,0.4-2.2,0.4-3.3s-0.1-2.2-0.4-3.3
			l-7.3,0.9C99.8,18.3,99.9,19.1,99.9,19.9z"/>
		<path id="XMLID_213_" class="st0" d="M84.1,19.9c0-0.8,0.1-1.6,0.4-2.4l-7.3-0.9c-0.2,1.1-0.4,2.2-0.4,3.3s0.1,2.2,0.4,3.3
			l7.3-0.9C84.2,21.6,84.1,20.8,84.1,19.9z"/>
	</g>
</g>
</svg>
