<?xml version="1.0" encoding="utf-8"?>
<!-- Generator: Adobe Illustrator 21.0.0, SVG Export Plug-In . SVG Version: 6.00 Build 0)  -->
<svg version="1.1" id="Layer_1" xmlns="http://www.w3.org/2000/svg" xmlns:xlink="http://www.w3.org/1999/xlink" x="0px" y="0px"
	 viewBox="0 0 80 80" style="enable-background:new 0 0 80 80;" xml:space="preserve">
<style type="text/css">
	.st0{fill:none;stroke:url(#XMLID_2_);stroke-width:2;stroke-linecap:round;stroke-linejoin:round;stroke-miterlimit:10;}
	.st1{fill:none;stroke:url(#XMLID_3_);stroke-width:2;stroke-linecap:round;stroke-linejoin:round;stroke-miterlimit:10;}
	.st2{fill:none;stroke:url(#XMLID_4_);stroke-width:2;stroke-linecap:round;stroke-linejoin:round;stroke-miterlimit:10;}
	
		.st3{fill-rule:evenodd;clip-rule:evenodd;fill:none;stroke:url(#XMLID_5_);stroke-width:2;stroke-linecap:round;stroke-linejoin:round;stroke-miterlimit:10;}
	.st4{fill:none;}
</style>
<g id="XMLID_11748_">
	<g id="XMLID_11750_">
		<linearGradient id="XMLID_2_" gradientUnits="userSpaceOnUse" x1="3.7818" y1="24.1623" x2="70.8846" y2="24.1623">
			<stop  offset="0" style="stop-color:#FFFF00"/>
			<stop  offset="1" style="stop-color:#FFCC00"/>
		</linearGradient>
		<path id="XMLID_11756_" class="st0" d="M69.9,10.1L42.9,36c-3.1,3-8,3-11.1,0l-27-25.9"/>
		<linearGradient id="XMLID_3_" gradientUnits="userSpaceOnUse" x1="3.782" y1="42.9253" x2="28.606" y2="42.9253">
			<stop  offset="0" style="stop-color:#FFFF00"/>
			<stop  offset="1" style="stop-color:#FFCC00"/>
		</linearGradient>
		<line id="XMLID_11754_" class="st1" x1="27.6" y1="32" x2="4.8" y2="53.9"/>
		<linearGradient id="XMLID_4_" gradientUnits="userSpaceOnUse" x1="3" y1="31.9829" x2="71.6666" y2="31.9829">
			<stop  offset="0" style="stop-color:#FFFF00"/>
			<stop  offset="1" style="stop-color:#FFCC00"/>
		</linearGradient>
		<path id="XMLID_11753_" class="st2" d="M70.7,33.3V12c0-1.5-1.2-2.7-2.7-2.7H6.7C5.2,9.3,4,10.5,4,12v40c0,1.5,1.2,2.7,2.7,2.7H36
			"/>
		<linearGradient id="XMLID_5_" gradientUnits="userSpaceOnUse" x1="42.9999" y1="55.9829" x2="77" y2="55.9829">
			<stop  offset="0" style="stop-color:#FFFF00"/>
			<stop  offset="1" style="stop-color:#FFCC00"/>
		</linearGradient>
		<path id="XMLID_11752_" class="st3" d="M60,47.3c-4.5-9.9-16.6-5.1-16,3.7c0.7,9.3,13.7,15.7,16,19.3c2.4-3.6,15.5-10.1,16-19.3
			C76.5,42.1,65,37.4,60,47.3z"/>
	</g>
	<rect id="XMLID_11749_" x="0" y="-0.2" class="st4" width="80" height="80"/>
</g>
</svg>
